<svg xmlns="http://www.w3.org/2000/svg" viewBox="0 0 50 50"><defs><style>.cls-1,.cls-2{fill:#2fc195;}.cls-1{opacity:0.2;}</style></defs><title>Asset 3</title><g id="Layer_2" data-name="Layer 2"><g id="Layer_1-2" data-name="Layer 1"><rect class="cls-1" width="50" height="50" rx="3" ry="3"/><path class="cls-2" d="M26.67,28.56H21.62v-.3A6.64,6.64,0,0,1,21.92,26a4.84,4.84,0,0,1,.91-1.53A29.2,29.2,0,0,1,25.66,22a2.75,2.75,0,0,0,1.27-2,1.88,1.88,0,0,0-.55-1.43,2.29,2.29,0,0,0-1.61-.51,2.57,2.57,0,0,0-1.9.76,3.13,3.13,0,0,0-.74,1.42A1,1,0,0,1,21,21l-3.2-.4A1,1,0,0,1,17,19.36a7.1,7.1,0,0,1,2-3.52c1.26-1.22,3.25-1.84,5.9-1.84a8.79,8.79,0,0,1,5,1.29,5.25,5.25,0,0,1,2.55,4.58,4.42,4.42,0,0,1-.65,2.27A11.69,11.69,0,0,1,29,24.89a7.64,7.64,0,0,0-1.93,2,3.88,3.88,0,0,0-.41,1.72Z"/><path class="cls-2" d="M26.48,31.33a2.87,2.87,0,0,1-4,4,1.1,1.1,0,0,1-.27-.27,2.87,2.87,0,0,1,4-4A1.1,1.1,0,0,1,26.48,31.33Z"/></g></g></svg>