<svg xmlns="http://www.w3.org/2000/svg" viewBox="0 0 50 50"><defs><style>.cls-1,.cls-2{fill:#fa555f;}.cls-1{opacity:0.2;}</style></defs><title>Asset 2</title><g id="Layer_2" data-name="Layer 2"><g id="Layer_1-2" data-name="Layer 1"><rect class="cls-1" width="50" height="50" rx="3" ry="3"/><path class="cls-2" d="M34.3,20.15c-3-4.91-7.5-1.5-7.5-1.5a2.33,2.33,0,0,1-1.2.4H24.4a2.32,2.32,0,0,1-1.2-.4s-4.51-3.42-7.5,1.49a15.17,15.17,0,0,0-1.79,10.26c.21,1.31.91,2.18,2.22,2.07S20.29,29,20.29,29a1.62,1.62,0,0,1,1.09-.51h7.24a1.62,1.62,0,0,1,1.09.51s2.84,3.42,4.15,3.53,2-.76,2.22-2.07A15.16,15.16,0,0,0,34.3,20.15Zm-11.61,2V23.8H21v1.68H19.19V23.8H17.51V22h1.68V20.31H21V22h1.68Zm6.71,3.74a1.23,1.23,0,1,1,1.23-1.23A1.23,1.23,0,0,1,29.4,25.86Zm0-3.38a1.23,1.23,0,1,1,1.23-1.23A1.23,1.23,0,0,1,29.4,22.48Zm3.06,1.81a1.23,1.23,0,1,1,1.23-1.23A1.23,1.23,0,0,1,32.46,24.29Z"/></g></g></svg>